<svg width="12" height="12" viewBox="0 0 12 12" fill="none" xmlns="http://www.w3.org/2000/svg">
<path d="M6 0C7.5913 0 9.11742 0.541835 10.2426 1.50631C11.3679 2.47078 12 3.77889 12 5.14286C12 7.272 10.1067 9.50286 6.4 11.8857C6.2846 11.9599 6.14425 12 6 12C5.85575 12 5.7154 11.9599 5.6 11.8857C1.89333 9.50286 0 7.272 0 5.14286C0 3.77889 0.632141 2.47078 1.75736 1.50631C2.88258 0.541835 4.4087 0 6 0ZM6 3.42857C5.46957 3.42857 4.96086 3.60918 4.58579 3.93067C4.21071 4.25217 4 4.6882 4 5.14286C4 5.59751 4.21071 6.03355 4.58579 6.35504C4.96086 6.67653 5.46957 6.85714 6 6.85714C6.53043 6.85714 7.03914 6.67653 7.41421 6.35504C7.78929 6.03355 8 5.59751 8 5.14286C8 4.6882 7.78929 4.25217 7.41421 3.93067C7.03914 3.60918 6.53043 3.42857 6 3.42857Z" fill="#D9D9D9"/>
</svg>
